<svg version="1.2" xmlns="http://www.w3.org/2000/svg" viewBox="0 0 186 150" width="400" height="323">
	<style>
		.s0 { fill: #1c7361 } 
	</style>
	<g id="surface1">
		<path id="path1531" class="s0" d="m0 148.07h10.09v-14.4c0-2.09 1.13-3.04 2.72-3.04 1.68 0 2.68 0.95 2.68 3.04v14.4h10.09v-14.4c0-2.09 1.09-3.04 2.72-3.04 1.73 0 2.73 0.95 2.73 3.04v14.4h10.13v-16.35c0-7.5-3.95-10-8.86-10-4.27 0-6.9 2.46-7.54 4.73h-0.36c-1.55-3.54-3.82-4.73-7.18-4.73-3.59 0-6.13 2.14-6.77 4.32h-0.36v-3.63h-10.09zm44.34-12.81c0 7.9 4.68 13.49 11.36 13.49 3.45 0 6.13-1.5 7.27-4.32h0.32v3.64h9.99v-25.67h-9.99v3.63h-0.32c-1.14-2.77-3.82-4.31-7.27-4.31-6.27 0-11.36 5.31-11.36 13.54zm14.58 4.58c-2.49 0-4.45-1.59-4.45-4.63 0-2.95 1.91-4.59 4.45-4.59 2.46 0 4.41 1.59 4.41 4.59 0 3.04-1.95 4.63-4.41 4.63zm36.35-6.49v-11.63c-4 0-6.77 2.13-8.13 6.36h-0.37v-5.68h-9.13v25.67h9.95v-9.27c0-3.77 2.09-5.82 5.14-5.82 1.13 0 1.99 0.19 2.54 0.37zm3.09 14.72h10.04v-25.67h-10.04zm0-28.35h10.04v-2.77h-10.04zm14.4 28.35h10.09v-14.4c0-2.09 1.13-3.05 2.72-3.05 1.68 0 2.68 0.96 2.68 3.05v14.4h10.09v-14.4c0-2.09 1.09-3.05 2.72-3.05 1.73 0 2.73 0.96 2.73 3.05v14.4h10.13v-16.36c0-7.49-3.95-9.99-8.86-9.99-4.27 0-6.9 2.45-7.54 4.72h-0.36c-1.55-3.54-3.82-4.72-7.18-4.72-3.59 0-6.14 2.13-6.77 4.31h-0.36v-3.63h-10.09zm58.02 0.68c7.9 0 13.62-5.63 13.62-13.53 0-8.14-5.72-13.5-13.62-13.5-7.96 0-13.68 5.36-13.68 13.5 0 7.9 4.82 13.53 13.68 13.53zm0-8.9c-2.5 0-4.46-1.59-4.46-4.63 0-2.96 1.91-4.59 4.46-4.59 2.45 0 4.4 1.59 4.4 4.59 0 3.04-1.95 4.63-4.4 4.63z"/>
		<path id="path1533" class="s0" d="m55.91 20.55c0.66-0.77 1.38-1.8 0.91-2.71 2.62-1.54 4.93-3.57 6.82-5.95q-1.55 1.22-3.34 1.98c8.94-8.82 22.39-12.84 34.74-10.36-9.95-0.38-20.08 2.26-28.3 7.86-8.24 5.58-14.49 14.15-16.9 23.81 3.64-10.57 11.33-19.7 21.13-25.07q-1.15 1.2-2.33 2.41c3.73-1.54 7.11-3.86 10.83-5.47 10.9-4.76 24.02-2.96 34.17 3.25 10.16 6.21 17.46 16.39 21.71 27.5 1.87 4.85 3.18 10.25 1.52 15.17-0.37-6.42-2.47-12.6-5.21-18.42-4.52-9.68-11.01-18.76-20.14-24.32-9.13-5.53-21.2-7-30.54-1.8 4.79-0.51 9.62-0.79 14.36-0.11 8.92 1.26 17.16 5.92 23.41 12.39 6.24 6.49 10.56 14.68 13.1 23.3 2.48 8.43 3.29 17.72 0.12 25.93 9.27-14.98 7.73-35.85-3.6-49.32-4.74-5.63-10.88-9.95-17.5-13.08-7.66-3.59-16.07-5.67-24.52-5.43-8.45 0.23-16.9 2.87-23.64 7.96 5.6-4.95 12.9-7.76 20.33-8.53 7.45-0.74 14.98 0.47 22.06 2.85 14.71 5 28.1 16.02 32.42 30.93 1.1 3.83 1.59 7.8 2.03 11.77 0.38 3.43 0.68 6.86 0.61 10.32-0.32 17.06-11.23 33.73-27.12 39.96-4.51 1.75-9.27 2.71-14.06 3.39-7.66 1.07-15.59 1.4-22.97-0.89-3.8-1.19-7.35-3.03-10.64-5.3-13.64-9.34-22.25-25.61-22.25-42.13 0-2.95 0.26-5.86 0.65-8.76 0.35-2.66 0.82-5.3 1.59-7.87 1.17-3.78 2.99-7.35 5.39-10.5q0.64-0.39 1.24-0.82c-5.53 11.7-8.82 25.52-3.76 37.45-1.82-7.78-1.94-15.92-0.32-23.72q0.77-0.29 1.51-0.61 0.04-0.76 0.07-1.52-0.55 0.64-1.09 1.24c0.86-6.19 3.52-12.04 7.51-16.78zm3.76-0.31q2.17-1.47 4.34-2.94c-0.91 1.85-2.59 3.29-4.55 3.95-9.1 9.4-11.91 23.43-10.83 36.46 0.42 4.93 1.42 10.04 4.6 13.82-2.22-9.1-2.34-18.72-0.31-27.87 0.4-0.03 0.54 0.49 0.54 0.88 0.16 6.14-0.89 12.28-0.44 18.42 0.44 6.12 2.73 12.59 7.86 15.92q6.02 3.93 12 7.85c-9.33-2.99-17.48-9.48-22.52-17.88 1.35 3.66 3.24 7.14 5.58 10.27q-0.45-1.27-0.89-2.57c2.36 2.22 4.74 4.39 7.1 6.58 1.72 1.61 4.43 3.25 6.21 1.71 0.28 0.58-0.24 1.3-0.87 1.47-0.63 0.19-1.31 0-1.94-0.19q4.25 3.05 8.8 5.6c-0.44 0.07-0.58 0.73-0.3 1.1 0.28 0.38 0.75 0.47 1.19 0.58 11.14 2.41 23 1.52 33.64-2.59-9.15 2.15-18.91 2.64-27.78-0.46-7.49-2.62-14.05-7.78-18.35-14.43-1.38-2.15-2.52-4.41-3.57-6.72-3.39-7.61-5.53-15.92-4.93-24.24 0.61-8.3 4.25-16.59 10.79-21.73 0.68-0.54 1.52-1.05 2.36-0.84-6.45 4.67-10.27 12.4-11.28 20.29-1 7.91 0.63 15.94 3.5 23.36 2.06 5.26 4.79 10.35 8.55 14.55 1.61 1.8 3.43 3.43 5.51 4.67 3.8 2.28 8.31 3.15 12.72 3.71q9.01 1.16 18.09 0.96c-7.63 1.79-15.62 0.51-23.34-0.77 13.12 4.92 28.5 1.91 39.78-6.38 2.24-1.66 4.36-3.5 6.06-5.72 2.62-3.41 4.18-7.56 4.98-11.79 2.05-11.01-0.89-22.52-6.24-32.4-3.71-6.86-8.63-13.21-15.12-17.53-6.07-4.01-13.28-6.14-20.55-6.54-11.15-0.65-22.97 3.04-30.39 11.44zm21.92 75.83q7.52 1.87 15.22 2.77c-6.3 1.45-12.79-0.77-18.88-2.94-3.6-1.26-7.24-2.57-10.58-4.43-8.08-4.48-14.15-12.17-17.67-20.71q-0.92-2.27-1.63-4.58c-0.05-0.18-0.19 0.26 0 0.17 0.18-0.07 0.16-0.35 0.07-0.54-2.11-5.06-3.39-10.5-3.79-15.97-0.39 8.27 1.66 16.58 5.4 23.98 4.06 8.05 10.15 15.13 17.81 19.91 7.63 4.79 16.83 7.21 25.79 6.35 12.61-1.24 23.67-8.59 33.83-16.13-4.48 5.93-11.28 9.59-17.88 13.05 11.41-3.2 20.56-12.23 26.07-22.74-2.73 4.67-7 8.34-11.65 11.09-4.67 2.76-9.78 4.67-14.89 6.51-2.24 0.82-4.5 1.61-6.82 2.27-6.6 1.89-13.56 2.54-20.4 1.94zm46.69-15.78c1.17-1.1 2.31-2.22 3.24-3.48 1.48-2.03 2.46-4.39 3.39-6.73 1.26-3.17 2.54-6.37 2.87-9.78-0.61 0.54-0.82 1.33-1.05 2.1-3.1 10.76-10.78 20.15-20.75 25.28 4.69-1.05 8.73-4.1 12.3-7.39zm-57.05 11.43c0.49 0.12 1.09 0.33 1.12 0.82 0.18-0.33 0.74-0.33 0.95 0 0.1-0.02 0.03-0.19-0.09-0.23q-1.06-0.56-2.08-1.12c-2.82-1.52-5.41-3.41-7.72-5.61-0.29 0.61-0.07 1.38 0.46 1.75q1.54 1.12 3.08 2.25c1.24 1.02 2.71 1.77 4.28 2.14zm67.41-35.29q-0.13 2.6-0.3 5.2-0.03 0.35-0.02 0.7-0.03 0.64-0.1 1.24c-0.02 0.51-0.04 0.98-0.04 1.49 0.98-3.96 1.33-8.12 1.03-12.18q-0.19-0.08-0.33-0.19-0.12 1.85-0.24 3.74zm-90.73-25.59q-0.24 0.46-0.45 0.91c0.17 0.21 0.47-0.04 0.54-0.3 0.07-0.23 0.14-0.56 0.4-0.58q-0.18-0.18-0.35-0.36c-0.05 0.1-0.1 0.24-0.05 0.33m16.88-19.37q0.35-0.28 0.7-0.59c-0.4-0.16-0.91 0.05-1.08 0.47q0.17 0.08 0.38 0.12zm0.72-1.1c0.51 0.12 1.1-0.02 1.52-0.37-0.54-0.03-1.08 0.09-1.52 0.37zm-18.58 23.69q-0.04-0.18-0.05-0.32c-0.44 0.16-0.65 0.77-0.4 1.16q0.14-0.45 0.45-0.84zm-2.64 11.91c-0.12 0.16-0.02 0.44 0.19 0.47q0.16-0.57-0.03-1.17c-0.23 0.12-0.3 0.44-0.16 0.65"/>
		<path id="path1535" class="s0" d="m60.11 13.99q0.07 0.11 0.14 0.23c-0.21 0.3-0.6 0.44-0.95 0.35 0.18-0.26 0.46-0.44 0.77-0.51"/>
		<path id="path1537" class="s0" d="m58.27 15.48q0.5-0.19 1.03-0.16c-0.07 0.51-0.94 0.65-1.15 0.16"/>
		<path id="path1539" class="s0" d="m57.1 14.41c0.21-0.33 0.61-0.56 1.03-0.52 0.09 0.24 0.02 0.52-0.16 0.68-0.33 0.05-0.73 0.09-0.96-0.16"/>
		<path id="path1541" class="s0" d="m122.54 15.95c0.14-0.02 0.28 0.11 0.25 0.25-0.02 0.14-0.18 0.24-0.32 0.19q-0.32-0.35-0.63-0.74c0.23-0.19 0.65-0.03 0.7 0.25"/>
		<path id="path1543" class="s0" d="m59.2 12.49c0.17-0.18 0.49-0.18 0.68-0.02-0.3 0.3-0.7 0.51-1.12 0.65-0.05-0.25 0.19-0.56 0.44-0.53"/>
		<path id="path1545" class="s0" d="m55.38 34.2c0.21-0.3 0.77-0.18 0.84 0.19-0.28-0.05-0.59 0.05-0.77 0.26-0.12 0.04-0.31-0.05-0.31-0.19-0.02-0.12 0.12-0.26 0.26-0.23"/>
		<path id="path1547" class="s0" d="m68.73 19.26c0.11-0.04 0.28-0.09 0.4-0.04 0.14 0.04 0.2 0.25 0.11 0.35-0.44 0.28-0.96 0.44-1.47 0.46 0.24-0.32 0.59-0.58 0.96-0.77z"/>
		<path id="path1549" class="s0" d="m75.61 92.21q0.37 0.25 0.73 0.49c-0.51 0.21-1.12 0.1-1.54-0.28-0.09-0.16 0.09-0.39 0.25-0.39 0.21-0.03 0.4 0.09 0.56 0.18z"/>
		<path id="path1551" class="s0" d="m64.95 17.11c-0.12-0.34-0.03-0.77 0.25-1.02 0.19-0.05 0.38-0.19 0.45-0.4q0.44 0.18 0.88 0.35-0.77 0.52-1.58 1.07z"/>
		<path id="path1553" class="s0" d="m53.55 42.19q0-0.21 0-0.42c0.24-0.12 0.49-0.12 0.7-0.03-0.41 0.45-0.65 1.05-0.6 1.66q-0.39-0.29-0.82-0.58 0.36-0.29 0.75-0.61"/>
		<path id="path1555" class="s0" d="m52.01 21.57c0.1-0.72 0.52-1.37 1.1-1.82 0.16-0.11 0.42-0.18 0.51-0.02q-0.77 0.77-1.23 1.75c-0.07 0.12-0.26 0.19-0.38 0.09z"/>
		<path id="path1557" class="s0" d="m54.42 36.05q0.69-0.53 1.37-1.05c-0.11 0.44-0.23 0.84-0.34 1.28-0.17 0.09-0.29 0.26-0.45 0.35-0.16 0.09-0.39 0.12-0.51-0.05-0.1-0.16 0.16-0.39 0.26-0.23q-0.15-0.13-0.33-0.3z"/>
		<path id="path1559" class="s0" d="m72.21 17.96c-0.05 0.11-0.1 0.23-0.05 0.37q-0.56 0.1-1.05 0.21-0.07 0.21-0.14 0.42-0.43-0.03-0.82-0.02c-0.23-0.12 0-0.45 0.24-0.56q0.7-0.35 1.47-0.45-0.11-0.16-0.21-0.32 0.56-0.45 1.3-0.66 0.14 0.25 0.07 0.54-0.24 0.11-0.49 0.05 0.04 0.16 0.07 0.37-0.23 0.08-0.39 0.05z"/>
		<path id="path1561" class="s0" d="m53.95 20.15c0.19-0.12 0.44-0.16 0.66-0.12q-0.14-0.17-0.24-0.35 0.35-0.07 0.73-0.11c0.09-0.24 0.09-0.52 0-0.75 0.25-0.02 0.53 0.02 0.77 0.12 0.07 0.09 0.09 0.23 0.07 0.35q-0.19 0.07-0.4 0.14-0.08 0.35-0.16 0.7c-0.12 0.07-0.31 0.09-0.45 0.04-0.21 1.26-1.59 1.99-2.08 3.15-0.16 0.4-0.32 0.92-0.74 0.92-0.12-0.14-0.1-0.4 0.07-0.52q-0.24-0.07-0.45-0.14c-0.02-0.26 0.4-0.18 0.61-0.02 0.19-0.16 0.02-0.54-0.21-0.54 0.26-0.21 0.42-0.53 0.47-0.86 0.25 0.02 0.51-0.07 0.67-0.26-0.18 0.05-0.39-0.09-0.44-0.3 0.37 0.07 0.75-0.28 0.72-0.66q0.42-0.24 0.84-0.49c-0.11-0.07-0.28-0.18-0.44-0.3z"/>
		<path id="path1563" class="s0" d="m127.28 21.39c-0.52-0.7-1.06-1.38-1.71-1.96-0.91-0.82-2.08-1.54-2.26-2.76 5.48 4.65 9.71 10.79 12.07 17.58 0.21 0.19-0.03 0.61-0.28 0.54-2.06-4.74-4.7-9.27-7.82-13.4z"/>
		<path id="path1565" class="s0" d="m65.65 17.7c0.95-0.77 2.05-1.5 2.45-2.66 0.11-0.33 0.44-0.59 0.74-0.77 4.72-2.97 10.23-4.6 15.78-4.69-2.77 0.74-5.53 1.47-8.3 2.21-4.32 1.15-7.5 4.72-10.42 8.13q-3.79 4.44-7.58 8.91c-0.31 0.82-0.59 1.66-0.89 2.48-0.12 0.37-0.26 0.75-0.58 0.98-0.31 0.23-0.82 0.23-1.01-0.12q1.68-2.94 3.39-5.93c1.82-3.08 3.64-6.25 6.42-8.54z"/>
	</g>
</svg>